<?xml version="1.0" encoding="UTF-8"?>
<svg viewBox="0 0 142 142" version="1.1" xmlns="http://www.w3.org/2000/svg" xmlns:xlink="http://www.w3.org/1999/xlink"><path fill="#ffffff" d="M129.4,95.9 L121.1,97.7 L114.1,93.2 L128.3,86.6 L125.7,80.9 L107.9,89.1 L83.5,73.4 C83.6,72.9 83.7,72.4 83.7,71.8 L111.3,78.4 L121.9,69.4 L111.5,60.6 L83.6,69 C83.5,68.6 83.5,68.2 83.3,67.8 L107.6,52.1 L125.4,60.3 L128,54.6 L113.8,48 L120.8,43.5 L129.1,45.3 L131.8,32.7 L119.2,30 L117.4,38.3 L110.3,42.8 L110.2,26.9 L104,26.9 L104.1,46.8 L80.2,62.2 C79.8,61.8 79.3,61.3 78.8,61 L98.7,40.7 L96.4,27 L83.5,31.4 L76.3,59.6 C75.7,59.3 75,59.1 74.4,58.9 L74.4,30.8 L91,20.3 L87.7,15 L74.5,23.4 L74.5,15.1 L80.5,9.1 L71.4,0 L62.3,9.1 L68.3,15.1 L68.3,23.5 L54.9,15 L51.6,20.3 L68.4,30.9 L68.4,58.9 C67.8,59.1 67.2,59.2 66.6,59.5 L59.4,31.4 L46.5,27 L44.2,40.7 L64,60.9 C63.5,61.3 63,61.7 62.6,62.1 L38.9,46.8 L39,26.9 L32.8,26.9 L32.7,42.8 L25.6,38.3 L23.8,30 L11.2,32.7 L13.9,45.3 L22.2,43.5 L29.2,48 L15,54.6 L17.6,60.3 L35.4,52.1 L59.5,67.6 C59.4,68 59.3,68.4 59.2,68.8 L31.8,60.6 L21.4,69.4 L32,78.4 L59.1,71.9 C59.1,72.4 59.2,73 59.3,73.5 L35.2,89 L17.4,80.8 L14.8,86.5 L29,93.1 L22,97.6 L13.7,95.8 L11,108.4 L23.6,111.1 L25.4,102.8 L32.5,98.3 L32.6,114.2 L38.8,114.2 L38.7,94.3 L62.2,79.2 C62.7,79.8 63.2,80.3 63.8,80.7 L44.3,100.6 L46.6,114.3 L59.5,109.9 L66.5,82.4 C67.1,82.7 67.7,82.9 68.4,83.1 L68.4,110.9 L51.6,121.5 L54.9,126.8 L68.3,118.3 L68.3,126.7 L62.3,132.7 L71.4,141.8 L80.5,132.7 L74.5,126.7 L74.5,118.4 L87.7,126.8 L91,121.5 L74.4,111 L74.4,83.1 C75.1,82.9 75.8,82.6 76.5,82.3 L83.5,109.6 L96.4,114 L98.7,100.3 L79.3,80.5 C79.8,80.1 80.3,79.6 80.7,79.1 L104.3,94.3 L104.2,114.2 L110.4,114.2 L110.5,98.3 L117.6,102.8 L119.4,111.1 L132,108.4 L129.4,95.9 Z"></path></svg>