<?xml version="1.0" encoding="UTF-8"?>
<svg viewBox="0 0 149 149" version="1.1" xmlns="http://www.w3.org/2000/svg" xmlns:xlink="http://www.w3.org/1999/xlink"><path fill="#ffffff" d="M140.2,100.2 L126.4,104.9 L120.6,101.6 L131.6,97.9 L130.6,94.9 L116.8,99.6 L100.7,90.5 L112,85.7 L105.2,77.5 L112.7,77.4 L122.6,88.2 L125,86 L117.1,77.3 L126.6,77.2 L126.6,74 L117.2,74.1 L124.9,65.3 L122.5,63.2 L113,74.2 L105.9,74.3 L111.8,66.5 L101.9,62.8 L117.9,54 L131.6,58.8 L132.7,55.8 L121.7,51.9 L127.6,48.7 L141.3,53.5 L142.4,50.5 L131.4,46.6 L140.2,41.7 L138.6,38.9 L129.5,43.5 L132.1,32 L129,31.3 L125.8,45.6 L119.9,48.8 L122.5,37.3 L119.4,36.6 L116.2,50.9 L99.3,60.2 L101,48.3 L91.2,49.7 L95.9,41.9 L110.3,39.1 L109.7,35.9 L98.2,38.1 L103,30 L100.2,28.4 L95.4,36.5 L91.8,25.5 L88.7,26.5 L93,40.4 L88.5,48 L84.2,38.2 L75.9,45.2 L75.9,25.8 L86.8,16.1 L84.7,13.7 L75.9,21.5 L75.9,14.8 L86.8,5.1 L84.7,2.7 L75.9,10.5 L75.9,1 L72.7,1 L72.7,10.4 L64,2.6 L61.9,5 L72.7,14.7 L72.7,21.4 L64,13.6 L61.9,16 L72.7,25.7 L72.7,44.1 L65.9,38.4 L61.5,48.5 L56.6,39.8 L56.7,39.8 L61.4,25.9 L58.4,24.9 L54.6,36.2 L49.9,27.8 L47.1,29.4 L51.7,37.6 L40.5,35.1 L39.8,38.2 L53.8,41.3 L59.1,50.6 L47.9,49 L49.6,60.7 L32,51 L28.8,36.7 L25.7,37.4 L28.3,48.9 L22.4,45.7 L19.2,31.4 L16.1,32.1 L18.7,43.6 L9.8,38.7 L8.2,41.5 L17,46.4 L6,50.3 L7.1,53.3 L20.8,48.5 L26.7,51.7 L15.7,55.6 L16.8,58.6 L30.5,53.8 L46.5,62.6 L36.6,66.3 L42.5,74.1 L35.4,74 L25.9,63 L23.5,65.1 L31.2,73.9 L21.8,73.8 L21.8,77 L31.3,77.1 L23.4,85.8 L25.8,88 L35.7,77.2 L43.2,77.3 L36.4,85.5 L47.7,90.3 L31.6,99.4 L17.8,94.7 L16.8,97.7 L27.8,101.4 L22,104.7 L8.2,100 L7.2,103 L18.2,106.7 L10,111.3 L11.6,114.1 L19.8,109.4 L17.3,120.9 L20.4,121.6 L23.5,107.3 L29.3,104 L26.8,115.5 L29.9,116.2 L33,101.9 L49.1,92.8 L47,103.6 L57.8,102.5 L54.6,108.5 L40.4,111.9 L41.2,115 L52.6,112.2 L48.1,120.5 L50.9,122 L55.3,113.7 L59.3,124.7 L62.3,123.6 L57.3,109.9 L60.7,103.6 L64.6,112.6 L72.7,105.8 L72.7,124.1 L61.9,133.8 L64,136.2 L72.7,128.4 L72.7,135.1 L61.9,144.8 L64,147.2 L72.7,139.4 L72.7,148.8 L75.9,148.8 L75.9,139.3 L84.7,147.1 L86.8,144.7 L75.9,135 L75.9,128.3 L84.7,136.1 L86.8,133.7 L75.9,124 L75.9,105.5 L84.3,112.6 L88.2,103.6 L91.6,109.9 L86.6,123.6 L89.6,124.7 L93.6,113.7 L98,122 L100.8,120.5 L96.3,112.2 L107.7,115 L108.5,111.9 L94.3,108.5 L91.1,102.6 L100.8,103.6 L98.7,92.8 L114.8,101.9 L117.9,116.2 L121,115.5 L118.5,104 L124.3,107.3 L127.4,121.6 L130.5,120.9 L128,109.4 L136.2,114.1 L137.8,111.3 L129.6,106.7 L140.6,103 L140.2,100.2 Z M60.7,53.5 L67.8,66.8 C66.8,67.5 66,68.4 65.3,69.5 L52.3,62.3 L51,52.1 L60.7,53.5 Z M40.8,67.6 L49.3,64.2 L64.1,72.4 C63.9,73.1 63.8,73.8 63.7,74.5 L45.9,74.3 L40.8,67.6 Z M40.3,84.5 L46.2,77.4 L63.9,77.6 C64.1,78.6 64.5,79.5 65,80.4 L50.1,88.8 L40.3,84.5 Z M59.4,100 L50.3,101 L51.9,91.5 L67,83 L66.9,82.8 C67.3,83.2 67.7,83.5 68.1,83.8 L59.4,100 Z M72.8,103 L65.7,108.8 L62.4,101.2 L71,85.2 C71.6,85.4 72.2,85.5 72.9,85.6 L72.9,103 L72.8,103 Z M72.8,64.7 C72.1,64.8 71.3,65 70.7,65.2 L63.2,51.3 L67,42.6 L72.8,47.4 L72.8,64.7 L72.8,64.7 Z M107.4,67.6 L102.3,74.2 L84.8,74.4 C84.7,73.6 84.6,72.9 84.4,72.2 L98.9,64.2 L107.4,67.6 Z M89.5,52.7 L97.9,51.5 L96.6,61.8 L83.1,69.3 C82.5,68.5 81.8,67.7 81.1,67.1 L89.5,52.7 Z M76,48.3 L83.3,42.3 L86.9,50.6 L78.2,65.3 C77.5,65 76.7,64.8 76,64.7 L76,48.3 L76,48.3 Z M83.5,108.8 L76,102.7 L76,85.6 C76.7,85.5 77.4,85.3 78,85 L86.8,101.1 L83.5,108.8 Z M89.9,100.1 L80.8,83.4 C81,83.3 81.1,83.1 81.3,83 L96.2,91.4 L97.8,100.9 L89.9,100.1 Z M98.1,88.8 L83.4,80.5 C83.9,79.6 84.3,78.6 84.6,77.6 L102,77.4 L107.9,84.5 L98.1,88.8 Z"></path></svg>