<?xml version="1.0" encoding="UTF-8"?>
<svg viewBox="0 0 119 119" version="1.1" xmlns="http://www.w3.org/2000/svg" xmlns:xlink="http://www.w3.org/1999/xlink">
    <path d="M113.9,55.2 C111.8,55.2 110,56.6 109.4,58.6 L102.4,58.6 L108.4,51.4 C108.6,51.4 108.8,51.5 109,51.5 C110.4,51.5 111.6,50.3 111.6,48.9 C111.6,47.5 110.4,46.3 109,46.3 C107.6,46.3 106.4,47.5 106.4,48.9 C106.4,49.3 106.5,49.6 106.6,50 L99.3,58.7 L84.4,58.7 C84.2,55 83.2,51.4 81.5,48.3 L86.9,45.5 L94.8,48.7 C94.8,49 94.9,49.2 95,49.5 C95.5,50.5 96.7,50.9 97.7,50.3 C98.7,49.8 99.1,48.6 98.5,47.6 C98,46.6 96.8,46.2 95.8,46.8 C95.7,46.9 95.5,47 95.4,47.1 L88.8,44.4 L93.5,41.9 C94.6,43.1 96.3,43.5 97.8,42.7 C99.5,41.8 100.2,39.6 99.3,37.9 C98.4,36.2 96.2,35.5 94.5,36.4 C93.1,37.2 92.4,38.8 92.7,40.3 L87.9,42.8 L89.4,35.8 C89.6,35.8 89.7,35.7 89.9,35.6 C90.9,35.1 91.3,33.9 90.7,32.9 C90.1,31.9 89,31.5 88,32.1 C87,32.6 86.6,33.8 87.2,34.8 C87.3,35.1 87.5,35.3 87.7,35.4 L85.9,43.9 L80.5,46.8 C78.6,43.9 76.2,41.4 73.4,39.6 L80.9,26.8 L92,25 C92.2,25.3 92.5,25.5 92.8,25.7 C94.1,26.4 95.7,26 96.4,24.8 C97.1,23.6 96.7,21.9 95.5,21.2 C94.2,20.5 92.6,20.9 91.9,22.1 C91.8,22.3 91.7,22.5 91.7,22.7 L82.5,24.2 L86,18.2 C88,18.8 90.3,18 91.4,16.1 C92.7,13.9 92,11 89.7,9.7 C87.5,8.4 84.6,9.1 83.3,11.4 C82.2,13.2 82.6,15.5 84,17 L80.4,23.1 L77.2,14.2 C77.3,14.1 77.5,13.9 77.6,13.7 C78.3,12.5 77.9,10.8 76.7,10.1 C75.4,9.4 73.8,9.8 73.1,11 C72.4,12.2 72.8,13.9 74,14.6 C74.3,14.8 74.7,14.9 75,14.9 L78.8,25.6 L71.3,38.3 C68.1,36.6 64.6,35.6 60.8,35.4 L61.1,29.6 L67.9,24.4 C68.1,24.5 68.4,24.6 68.7,24.6 C69.8,24.7 70.7,23.8 70.8,22.7 C70.9,21.6 70,20.7 68.9,20.6 C67.8,20.6 66.9,21.4 66.8,22.5 C66.8,22.7 66.8,22.8 66.8,23 L61.2,27.3 L61.4,22 C63,21.7 64.2,20.4 64.3,18.7 C64.4,16.7 62.9,15.1 60.9,15 C58.9,14.9 57.3,16.4 57.2,18.4 C57.1,20 58.2,21.4 59.6,21.9 L59.4,27.3 L54.1,22.4 C54.1,22.2 54.2,22.1 54.2,21.9 C54.2,20.8 53.4,19.9 52.3,19.8 C51.2,19.8 50.3,20.6 50.2,21.7 C50.2,22.8 51,23.7 52.1,23.8 C52.4,23.8 52.7,23.8 52.9,23.7 L59.3,29.5 L59,35.3 C55.4,35.4 52.1,36.2 49.1,37.7 L41.5,24.8 L45.3,14.1 C45.7,14.1 46,14 46.3,13.8 C47.5,13.1 48,11.5 47.2,10.2 C46.5,9 44.9,8.5 43.6,9.3 C42.3,10 41.9,11.6 42.7,12.9 C42.8,13.1 42.9,13.2 43.1,13.4 L39.9,22.3 L36.3,16.2 C37.7,14.7 38,12.5 37,10.6 C35.7,8.4 32.9,7.6 30.6,8.9 C28.4,10.2 27.6,13 28.9,15.3 C30,17.2 32.3,18 34.3,17.4 L37.8,23.4 L28.6,21.9 C28.5,21.7 28.5,21.5 28.4,21.3 C27.7,20 26.1,19.6 24.8,20.4 C23.6,21.1 23.1,22.7 23.9,24 C24.7,25.3 26.2,25.7 27.5,24.9 C27.8,24.7 28.1,24.5 28.3,24.2 L39.4,26 L47,38.9 C44,40.7 41.5,43 39.5,45.8 L34.4,43.1 L32.6,34.6 C32.8,34.4 33,34.2 33.1,34 C33.6,33 33.2,31.8 32.3,31.3 C31.3,30.8 30.1,31.2 29.6,32.1 C29.1,33 29.5,34.3 30.4,34.8 C30.5,34.9 30.7,34.9 30.9,35 L32.4,42 L27.6,39.5 C27.9,38 27.2,36.4 25.8,35.6 C24.1,34.7 21.9,35.3 21,37.1 C20.1,38.8 20.7,41 22.5,41.9 C24,42.7 25.8,42.3 26.8,41.1 L31.5,43.6 L24.9,46.3 C24.8,46.2 24.7,46.1 24.5,46 C23.5,45.5 22.3,45.9 21.8,46.8 C21.3,47.8 21.7,49 22.6,49.5 C23.6,50 24.8,49.6 25.3,48.7 C25.4,48.4 25.5,48.2 25.5,47.9 L33.4,44.7 L38.4,47.4 C36.4,50.7 35.1,54.6 34.9,58.7 L19.9,58.7 L12.6,50 C12.7,49.7 12.8,49.3 12.8,48.9 C12.8,47.5 11.6,46.3 10.2,46.3 C8.7,46.3 7.6,47.5 7.6,48.9 C7.6,50.3 8.8,51.5 10.2,51.5 C10.4,51.5 10.6,51.5 10.8,51.4 L16.8,58.6 L9.8,58.6 C9.2,56.7 7.5,55.2 5.3,55.2 C2.7,55.2 0.7,57.3 0.7,59.8 C0.7,62.4 2.8,64.4 5.3,64.4 C7.5,64.4 9.3,62.9 9.8,60.8 L16.7,60.8 L10.7,67.9 C10.5,67.9 10.3,67.8 10.1,67.8 C8.6,67.8 7.5,69 7.5,70.4 C7.5,71.8 8.7,73 10.1,73 C11.5,73 12.7,71.8 12.7,70.4 C12.7,70 12.6,69.7 12.5,69.3 L19.7,60.7 L34.7,60.7 C34.8,64.6 35.9,68.3 37.6,71.5 L32.5,74.2 L24.6,71 C24.6,70.7 24.5,70.5 24.4,70.2 C23.9,69.2 22.7,68.8 21.7,69.4 C20.7,69.9 20.3,71.1 20.9,72.1 C21.4,73.1 22.6,73.5 23.6,72.9 C23.7,72.8 23.9,72.7 24,72.6 L30.6,75.3 L25.9,77.8 C24.8,76.6 23.1,76.2 21.6,77 C19.9,77.9 19.2,80.1 20.1,81.8 C21,83.5 23.2,84.2 24.9,83.3 C26.3,82.5 27,80.9 26.7,79.4 L31.4,76.9 L29.9,83.9 C29.7,83.9 29.6,84 29.4,84.1 C28.4,84.6 28,85.8 28.6,86.8 C29.1,87.8 30.3,88.2 31.3,87.6 C32.3,87.1 32.7,85.9 32.1,84.9 C32,84.6 31.8,84.4 31.6,84.3 L33.4,75.8 L38.5,73.1 C40.5,76.3 43.3,79 46.5,80.9 L38.8,93.9 L27.7,95.7 C27.5,95.4 27.2,95.2 26.9,95 C25.6,94.3 24,94.7 23.3,95.9 C22.6,97.2 23,98.8 24.2,99.5 C25.5,100.2 27.1,99.8 27.8,98.6 C27.9,98.4 28,98.2 28,98 L37.2,96.5 L33.7,102.5 C31.7,101.9 29.4,102.7 28.3,104.6 C27,106.8 27.7,109.7 30,111 C32.2,112.3 35.1,111.6 36.4,109.3 C37.5,107.5 37.1,105.2 35.7,103.7 L39.3,97.6 L42.5,106.5 C42.4,106.6 42.2,106.8 42.1,107 C41.4,108.2 41.8,109.9 43,110.6 C44.3,111.3 45.9,110.9 46.6,109.7 C47.3,108.5 46.9,106.8 45.7,106.1 C45.4,105.9 45,105.8 44.7,105.8 L40.9,95.1 L48.6,82.1 C51.6,83.6 54.9,84.4 58.5,84.6 L58.8,90.5 L52.4,96.3 C52.1,96.2 51.9,96.1 51.6,96.2 C50.5,96.2 49.6,97.2 49.7,98.3 C49.8,99.4 50.7,100.3 51.8,100.2 C52.9,100.2 53.8,99.2 53.7,98.1 C53.7,97.9 53.7,97.8 53.6,97.6 L58.9,92.7 L59.1,98.1 C57.6,98.6 56.6,100 56.7,101.6 C56.8,103.6 58.4,105.1 60.4,105 C62.4,104.9 63.9,103.3 63.8,101.3 C63.7,99.6 62.5,98.3 60.9,98 L60.7,92.7 L66.3,97 C66.3,97.2 66.3,97.3 66.3,97.5 C66.3,98.6 67.3,99.5 68.4,99.4 C69.5,99.4 70.4,98.4 70.3,97.3 C70.3,96.2 69.3,95.3 68.2,95.4 C67.9,95.4 67.6,95.5 67.4,95.6 L60.6,90.4 L60.3,84.6 C64.1,84.5 67.7,83.5 70.8,81.8 L78.2,94.4 L74.4,105.1 C74,105.1 73.7,105.2 73.4,105.4 C72.2,106.1 71.7,107.7 72.5,109 C73.2,110.3 74.8,110.7 76.1,109.9 C77.3,109.2 77.8,107.6 77,106.3 C76.9,106.1 76.8,106 76.6,105.8 L79.8,96.9 L83.4,103 C82,104.5 81.7,106.7 82.7,108.6 C84,110.8 86.8,111.6 89.1,110.3 C91.3,109 92.1,106.2 90.8,103.9 C89.7,102 87.4,101.2 85.4,101.8 L81.9,95.8 L91.1,97.3 C91.2,97.5 91.2,97.7 91.3,97.9 C92,99.1 93.6,99.6 94.9,98.8 C96.1,98.1 96.6,96.5 95.8,95.2 C95.1,94 93.5,93.5 92.2,94.3 C91.9,94.5 91.6,94.7 91.4,95 L80.3,93.2 L72.8,80.5 C75.7,78.6 78.2,76.1 80.1,73.1 L85.2,75.8 L87,84.3 C86.8,84.5 86.6,84.7 86.5,84.9 C86,85.9 86.4,87.1 87.3,87.6 C88.3,88.1 89.5,87.7 90,86.8 C90.5,85.8 90.1,84.6 89.2,84.1 C89.1,84 88.9,84 88.7,83.9 L87.2,76.9 L92,79.4 C91.7,80.9 92.4,82.5 93.8,83.3 C95.5,84.2 97.7,83.6 98.6,81.8 C99.5,80.1 98.9,77.9 97.1,77 C95.6,76.2 93.8,76.6 92.8,77.8 L88.1,75.3 L94.7,72.6 C94.8,72.7 94.9,72.8 95.1,72.9 C96.1,73.4 97.3,73 97.8,72.1 C98.3,71.1 97.9,69.9 97,69.4 C96,68.9 94.8,69.3 94.3,70.2 C94.2,70.5 94.1,70.7 94.1,71 L86.2,74.2 L81.2,71.5 C83,68.2 84,64.5 84.1,60.6 L99,60.6 L106.2,69.2 C106.1,69.5 106,69.9 106,70.3 C106,71.7 107.2,72.9 108.6,72.9 C110,72.9 111.2,71.7 111.2,70.3 C111.2,68.9 110,67.7 108.6,67.7 C108.4,67.7 108.2,67.7 108,67.8 L102,60.7 L108.9,60.7 C109.4,62.8 111.2,64.3 113.4,64.3 C116,64.3 118,62.2 118,59.7 C118.6,57.3 116.5,55.2 113.9,55.2 Z M83,56.2 C81.6,53.6 78.9,51.8 75.7,51.8 C75.1,51.8 74.5,51.9 73.9,52 C75.4,50.5 76.4,48.4 76.4,46.1 C76.4,44.9 76.1,43.7 75.6,42.6 C79.5,46.2 82.1,50.9 83,56.2 Z M51.2,58.2 C51.7,60 51.4,61.8 50.5,63.4 C49.6,65 48.1,66.1 46.3,66.6 C44.5,67.1 42.7,66.8 41.1,65.9 C37.8,64 36.7,59.8 38.6,56.5 C39.5,54.9 41,53.8 42.8,53.3 C43.4,53.1 44,53.1 44.6,53.1 C45.8,53.1 47,53.4 48,54 C49.6,55 50.7,56.4 51.2,58.2 Z M68.9,60 C68.9,56.2 72,53.1 75.8,53.1 C79.6,53.1 82.7,56.2 82.7,60 C82.7,63.8 79.6,66.9 75.8,66.9 C71.9,66.9 68.9,63.8 68.9,60 Z M75.1,46.2 C75.1,50 72,53.1 68.2,53.1 C64.4,53.1 61.3,50 61.3,46.2 C61.3,42.4 64.4,39.3 68.2,39.3 C72,39.3 75.1,42.4 75.1,46.2 Z M60,36.6 C62.7,36.6 65.4,37.1 67.8,38 C63.8,38.2 60.5,41.3 60.1,45.3 C60.1,45 60,44.7 59.9,44.3 C59.3,42.2 58,40.4 56.1,39.3 C54.7,38.5 53.1,38.1 51.4,38.2 C54.1,37.2 57,36.6 60,36.6 Z M50.2,39.8 C50.8,39.6 51.4,39.6 52,39.6 C53.2,39.6 54.4,39.9 55.4,40.5 C57,41.4 58.1,42.9 58.6,44.7 C59.1,46.5 58.8,48.3 57.9,49.9 C57,51.5 55.5,52.6 53.7,53.1 C51.9,53.6 50.1,53.3 48.5,52.4 C46.9,51.5 45.8,50 45.3,48.2 C44.8,46.4 45.1,44.6 46,43 C47,41.4 48.4,40.3 50.2,39.8 Z M45.2,41.9 C45.1,42.1 45,42.2 44.9,42.3 C43.1,45.4 43.6,49.3 45.9,51.9 C44.8,51.7 43.6,51.7 42.4,52.1 C40.3,52.7 38.5,54 37.4,55.9 C37.1,56.4 36.9,56.9 36.7,57.5 C37.5,51.2 40.6,45.7 45.2,41.9 Z M36.8,62.4 C37.4,64.3 38.7,66 40.5,67 C41.8,67.7 43.2,68.1 44.6,68.1 C45.2,68.1 45.7,68 46.3,67.9 C45,69.4 44.2,71.3 44.2,73.4 C44.2,75.3 44.9,77.1 46,78.5 C40.9,74.8 37.5,69 36.8,62.4 Z M45.4,73.4 C45.4,69.6 48.5,66.5 52.3,66.5 C56.1,66.5 59.2,69.6 59.2,73.4 C59.2,77.2 56.1,80.3 52.3,80.3 C48.5,80.3 45.4,77.2 45.4,73.4 Z M60,83.3 C56.8,83.3 53.7,82.6 51,81.5 C51.4,81.6 51.9,81.6 52.3,81.6 C56.2,81.6 59.5,78.8 60.3,75.2 C61.2,78.8 64.4,81.5 68.2,81.5 C68.6,81.5 68.9,81.5 69.3,81.4 C66.4,82.6 63.3,83.3 60,83.3 Z M68.2,80.2 C64.4,80.2 61.3,77.1 61.3,73.3 C61.3,69.5 64.4,66.4 68.2,66.4 C72,66.4 75.1,69.5 75.1,73.3 C75.1,77.1 72,80.2 68.2,80.2 Z M75,77.8 C75.9,76.5 76.4,74.9 76.4,73.3 C76.4,71.3 75.7,69.5 74.5,68.1 C74.9,68.2 75.3,68.2 75.7,68.2 C78.9,68.2 81.6,66.4 83,63.8 C82.1,69.3 79.2,74.3 75,77.8 Z"></path>
</svg>